<?xml version="1.0" encoding="UTF-8" standalone="no"?>
<svg
   version="1.1"
   preserveAspectRatio="xMidYMid meet"
   viewBox="0 0 300 300"
   width="300"
   height="300"
   id="svg7911"
   sodipodi:docname="ICON4_1.svg"
   inkscape:version="1.1 (c4e8f9e, 2021-05-24)"
   xmlns:inkscape="http://www.inkscape.org/namespaces/inkscape"
   xmlns:sodipodi="http://sodipodi.sourceforge.net/DTD/sodipodi-0.dtd"
   xmlns="http://www.w3.org/2000/svg"
   xmlns:svg="http://www.w3.org/2000/svg">
  <sodipodi:namedview
     id="namedview7913"
     pagecolor="#ffffff"
     bordercolor="#666666"
     borderopacity="1.0"
     inkscape:pageshadow="2"
     inkscape:pageopacity="0.0"
     inkscape:pagecheckerboard="0"
     showgrid="false"
     inkscape:zoom="2.8233333"
     inkscape:cx="150"
     inkscape:cy="150"
     inkscape:window-width="1384"
     inkscape:window-height="1027"
     inkscape:window-x="0"
     inkscape:window-y="25"
     inkscape:window-maximized="0"
     inkscape:current-layer="svg7911" />
  <defs
     id="defs7839">
    <path
       d="M243.65 213.45C248.7 213.45 252.79 217.55 252.79 222.6C252.79 224.42 252.79 220.77 252.79 222.6C252.79 227.65 248.7 231.74 243.65 231.74C204.36 231.74 95.64 231.74 56.35 231.74C51.3 231.74 47.21 227.65 47.21 222.6C47.21 220.77 47.21 224.42 47.21 222.6C47.21 217.55 51.3 213.45 56.35 213.45C95.64 213.45 204.36 213.45 243.65 213.45Z"
       id="d1hzTexmv" />
    <path
       d="M243.65 213.45C248.7 213.45 252.79 217.55 252.79 222.6C252.79 226.88 252.79 230.61 252.79 234.9C252.79 239.95 248.7 244.04 243.65 244.04C204.36 244.04 95.64 244.04 56.35 244.04C51.3 244.04 47.21 239.95 47.21 234.9C47.21 230.61 47.21 226.88 47.21 222.6C47.21 217.55 51.3 213.45 56.35 213.45C95.64 213.45 204.36 213.45 243.65 213.45Z"
       id="a3nyNIRX5e" />
    <path
       d="M79.41 213.45C85.8 213.45 90.99 218.64 90.99 225.04C90.99 233.72 90.99 248.19 90.99 256.87C90.99 263.27 85.8 268.45 79.41 268.45C72.69 268.45 64.11 268.45 57.39 268.45C50.99 268.45 45.81 263.27 45.81 256.87C45.81 248.19 45.81 233.72 45.81 225.04C45.81 218.64 50.99 213.45 57.39 213.45C64.11 213.45 72.69 213.45 79.41 213.45Z"
       id="b20t4sbH3j" />
    <path
       d=""
       id="hPKCLmyyA" />
    <path
       d=""
       id="f2Vs8aBTz5" />
    <path
       d=""
       id="b42Ewu0BUB" />
    <path
       d="M245.62 213.45C252.02 213.45 257.2 218.64 257.2 225.04C257.2 233.72 257.2 248.19 257.2 256.87C257.2 263.27 252.02 268.45 245.62 268.45C238.9 268.45 230.33 268.45 223.61 268.45C217.21 268.45 212.02 263.27 212.02 256.87C212.02 248.19 212.02 233.72 212.02 225.04C212.02 218.64 217.21 213.45 223.61 213.45C230.33 213.45 238.9 213.45 245.62 213.45Z"
       id="a1gAIsf0Vl" />
    <path
       d="M161.01 215.24C167.4 215.24 172.59 220.42 172.59 226.82C172.59 235.5 172.59 249.97 172.59 258.65C172.59 265.05 167.4 270.24 161.01 270.24C154.29 270.24 145.71 270.24 138.99 270.24C132.6 270.24 127.41 265.05 127.41 258.65C127.41 249.97 127.41 235.5 127.41 226.82C127.41 220.42 132.6 215.24 138.99 215.24C145.71 215.24 154.29 215.24 161.01 215.24Z"
       id="a2oo6EmNQC" />
    <path
       d=""
       id="aEap3I7Sd" />
  </defs>
  <g
     id="g7909">
    <g
       id="g7907">
      <g
         id="g7847">
        <path
           style="color:#000000;fill:#ffffff;-inkscape-stroke:none"
           d="m 243.65,213.45 c 5.05,0 9.14,4.1 9.14,9.15 0,1.82 0,-1.83 0,0 0,5.05 -4.09,9.14 -9.14,9.14 -39.29,0 -148.01,0 -187.3,0 -5.05,0 -9.14,-4.09 -9.14,-9.14 0,-1.83 0,1.82 0,0 0,-5.05 4.09,-9.15 9.14,-9.15 39.29,0 148.01,0 187.3,0 z"
           id="use7841" />
        <g
           id="g7845">
          <g
             id="use7843">
            <path
               style="color:#000000;fill:#000000;fill-opacity:0;stroke-width:0;-inkscape-stroke:none"
               d="m 243.65,213.45 c 5.05,0 9.14,4.1 9.14,9.15 0,1.82 0,-1.83 0,0 0,5.05 -4.09,9.14 -9.14,9.14 -39.29,0 -148.01,0 -187.3,0 -5.05,0 -9.14,-4.09 -9.14,-9.14 0,-1.83 0,1.82 0,0 0,-5.05 4.09,-9.15 9.14,-9.15 39.29,0 148.01,0 187.3,0 z"
               id="path7951" />
            <path
               style="color:#000000;fill:#ffffff;-inkscape-stroke:none"
               d="m 243.65,213.45 c 5.04999,0 9.14,4.10001 9.14,9.15 0,1.82 0,-1.83 0,0 0,5.04999 -4.09001,9.14 -9.14,9.14 H 56.35 c -5.049995,0 -9.14,-4.09001 -9.14,-9.14 0,-1.83 0,1.82 0,0 0,-5.04999 4.090005,-9.15 9.14,-9.15 z"
               id="path7953" />
          </g>
        </g>
      </g>
      <path
         id="path7849" />
      <g
         id="g7857">
        <path
           style="color:#000000;fill:#ffffff;-inkscape-stroke:none"
           d="m 243.65,213.45 c 5.05,0 9.14,4.1 9.14,9.15 0,4.28 0,8.01 0,12.3 0,5.05 -4.09,9.14 -9.14,9.14 -39.29,0 -148.01,0 -187.3,0 -5.05,0 -9.14,-4.09 -9.14,-9.14 0,-4.29 0,-8.02 0,-12.3 0,-5.05 4.09,-9.15 9.14,-9.15 39.29,0 148.01,0 187.3,0 z"
           id="use7851" />
        <g
           id="g7855">
          <g
             id="use7853">
            <path
               style="color:#000000;fill:#000000;fill-opacity:0;stroke-width:0;-inkscape-stroke:none"
               d="m 243.65,213.45 c 5.05,0 9.14,4.1 9.14,9.15 0,4.28 0,8.01 0,12.3 0,5.05 -4.09,9.14 -9.14,9.14 -39.29,0 -148.01,0 -187.3,0 -5.05,0 -9.14,-4.09 -9.14,-9.14 0,-4.29 0,-8.02 0,-12.3 0,-5.05 4.09,-9.15 9.14,-9.15 39.29,0 148.01,0 187.3,0 z"
               id="path7965" />
            <path
               style="color:#000000;fill:#ffffff;-inkscape-stroke:none"
               d="m 243.65,213.45 c 5.04999,0 9.14,4.10001 9.14,9.15 v 12.3 c 0,5.04999 -4.09001,9.14 -9.14,9.14 H 56.35 c -5.049995,0 -9.14,-4.09001 -9.14,-9.14 v -12.3 c 0,-5.04999 4.090005,-9.15 9.14,-9.15 z"
               id="path7967" />
          </g>
        </g>
      </g>
      <g
         id="g7865">
        <path
           style="color:#000000;fill:#ffffff;-inkscape-stroke:none"
           d="m 79.41,213.45 c 6.39,0 11.58,5.19 11.58,11.59 0,8.68 0,23.15 0,31.83 0,6.4 -5.19,11.58 -11.58,11.58 -6.72,0 -15.3,0 -22.02,0 -6.4,0 -11.58,-5.18 -11.58,-11.58 0,-8.68 0,-23.15 0,-31.83 0,-6.4 5.18,-11.59 11.58,-11.59 6.72,0 15.3,0 22.02,0 z"
           id="use7859" />
        <g
           id="g7863">
          <g
             id="use7861">
            <path
               style="color:#000000;fill:#000000;fill-opacity:0;stroke-width:0;-inkscape-stroke:none"
               d="m 79.41,213.45 c 6.39,0 11.58,5.19 11.58,11.59 0,8.68 0,23.15 0,31.83 0,6.4 -5.19,11.58 -11.58,11.58 -6.72,0 -15.3,0 -22.02,0 -6.4,0 -11.58,-5.18 -11.58,-11.58 0,-8.68 0,-23.15 0,-31.83 0,-6.4 5.18,-11.59 11.58,-11.59 6.72,0 15.3,0 22.02,0 z"
               id="path7979" />
            <path
               style="color:#000000;fill:#ffffff;-inkscape-stroke:none"
               d="m 79.41,213.45 c 6.389994,0 11.58,5.19001 11.58,11.59 v 31.83 c 0,6.39999 -5.190006,11.58 -11.58,11.58 H 57.39 c -6.399994,0 -11.58,-5.18001 -11.58,-11.58 v -31.83 c 0,-6.39999 5.180006,-11.59 11.58,-11.59 z"
               id="path7981" />
          </g>
        </g>
      </g>
      <g
         id="g7871">
        <g
           id="g7869">
          <path
             d=""
             id="use7867"
             style="fill-opacity:0;stroke:#000000;stroke-width:24" />
        </g>
      </g>
      <g
         id="g7877">
        <g
           id="g7875">
          <path
             d=""
             id="use7873"
             style="fill-opacity:0;stroke:#000000;stroke-width:24" />
        </g>
      </g>
      <g
         id="g7883">
        <g
           id="g7881">
          <path
             d=""
             id="use7879"
             style="fill-opacity:0;stroke:#000000;stroke-width:24" />
        </g>
      </g>
      <g
         id="g7891">
        <path
           style="color:#000000;fill:#ffffff;-inkscape-stroke:none"
           d="m 245.62,213.45 c 6.4,0 11.58,5.19 11.58,11.59 0,8.68 0,23.15 0,31.83 0,6.4 -5.18,11.58 -11.58,11.58 -6.72,0 -15.29,0 -22.01,0 -6.4,0 -11.59,-5.18 -11.59,-11.58 0,-8.68 0,-23.15 0,-31.83 0,-6.4 5.19,-11.59 11.59,-11.59 6.72,0 15.29,0 22.01,0 z"
           id="use7885" />
        <g
           id="g7889">
          <g
             id="use7887">
            <path
               style="color:#000000;fill:#000000;fill-opacity:0;stroke-width:0;-inkscape-stroke:none"
               d="m 245.62,213.45 c 6.4,0 11.58,5.19 11.58,11.59 0,8.68 0,23.15 0,31.83 0,6.4 -5.18,11.58 -11.58,11.58 -6.72,0 -15.29,0 -22.01,0 -6.4,0 -11.59,-5.18 -11.59,-11.58 0,-8.68 0,-23.15 0,-31.83 0,-6.4 5.19,-11.59 11.59,-11.59 6.72,0 15.29,0 22.01,0 z"
               id="path7993" />
            <path
               style="color:#000000;fill:#ffffff;-inkscape-stroke:none"
               d="m 245.62,213.45 c 6.39999,0 11.58,5.19001 11.58,11.59 v 31.83 c 0,6.39999 -5.18001,11.58 -11.58,11.58 h -22.01 c -6.39999,0 -11.59,-5.18001 -11.59,-11.58 v -31.83 c 0,-6.39999 5.19001,-11.59 11.59,-11.59 z"
               id="path7995" />
          </g>
        </g>
      </g>
      <g
         id="g7899">
        <path
           style="color:#000000;fill:#ffffff;-inkscape-stroke:none"
           d="m 161.01,215.24 c 6.39,0 11.58,5.18 11.58,11.58 0,8.68 0,23.15 0,31.83 0,6.4 -5.19,11.59 -11.58,11.59 -6.72,0 -15.3,0 -22.02,0 -6.39,0 -11.58,-5.19 -11.58,-11.59 0,-8.68 0,-23.15 0,-31.83 0,-6.4 5.19,-11.58 11.58,-11.58 6.72,0 15.3,0 22.02,0 z"
           id="use7893" />
        <g
           id="g7897">
          <g
             id="use7895">
            <path
               style="color:#000000;fill:#000000;fill-opacity:0;stroke-width:0;-inkscape-stroke:none"
               d="m 161.01,215.24 c 6.39,0 11.58,5.18 11.58,11.58 0,8.68 0,23.15 0,31.83 0,6.4 -5.19,11.59 -11.58,11.59 -6.72,0 -15.3,0 -22.02,0 -6.39,0 -11.58,-5.19 -11.58,-11.59 0,-8.68 0,-23.15 0,-31.83 0,-6.4 5.19,-11.58 11.58,-11.58 6.72,0 15.3,0 22.02,0 z"
               id="path8007" />
            <path
               style="color:#000000;fill:#ffffff;-inkscape-stroke:none"
               d="m 161.01,215.24 c 6.38999,0 11.58,5.18001 11.58,11.58 v 31.83 c 0,6.39999 -5.19001,11.59 -11.58,11.59 h -22.02 c -6.38999,0 -11.58,-5.19001 -11.58,-11.59 v -31.83 c 0,-6.39999 5.19001,-11.58 11.58,-11.58 z"
               id="path8009" />
          </g>
        </g>
      </g>
      <g
         id="g7905">
        <g
           id="g7903">
          <path
             d=""
             id="use7901"
             style="fill-opacity:0;stroke:#000000;stroke-width:24" />
        </g>
      </g>
    </g>
  </g>
</svg>
