<?xml version="1.0" encoding="UTF-8" standalone="no"?>
<svg
   version="1.1"
   preserveAspectRatio="xMidYMid meet"
   viewBox="0 0 300 300"
   width="300"
   height="300"
   id="svg3027"
   sodipodi:docname="ICON5_2.svg"
   inkscape:version="1.1 (c4e8f9e, 2021-05-24)"
   xmlns:inkscape="http://www.inkscape.org/namespaces/inkscape"
   xmlns:sodipodi="http://sodipodi.sourceforge.net/DTD/sodipodi-0.dtd"
   xmlns="http://www.w3.org/2000/svg"
   xmlns:svg="http://www.w3.org/2000/svg">
  <sodipodi:namedview
     id="namedview3029"
     pagecolor="#ffffff"
     bordercolor="#666666"
     borderopacity="1.0"
     inkscape:pageshadow="2"
     inkscape:pageopacity="0.0"
     inkscape:pagecheckerboard="0"
     showgrid="false"
     inkscape:zoom="2.8233333"
     inkscape:cx="150"
     inkscape:cy="150"
     inkscape:window-width="1384"
     inkscape:window-height="1027"
     inkscape:window-x="0"
     inkscape:window-y="25"
     inkscape:window-maximized="0"
     inkscape:current-layer="svg3027" />
  <defs
     id="defs2913">
    <path
       d="M186.88 135.78C189.47 135.78 191.57 137.88 191.57 140.47C191.57 145.22 191.57 154.78 191.57 159.53C191.57 162.12 189.47 164.22 186.88 164.22C172.54 164.22 134.19 164.22 119.85 164.22C117.26 164.22 115.16 162.12 115.16 159.53C115.16 154.78 115.16 145.22 115.16 140.47C115.16 137.88 117.26 135.78 119.85 135.78C134.19 135.78 172.54 135.78 186.88 135.78Z"
       id="eaaLEZW1A" />
    <path
       d="M74.33 218L99.33 218L99.33 243L74.33 243L74.33 218Z"
       id="b3xwY60m6" />
    <path
       d="M113.42 59.08L132.65 59.08L132.65 84.08L113.42 84.08L113.42 59.08Z"
       id="b1P0S7Xm5W" />
    <path
       d="M74.33 137.5L99.33 137.5L99.33 162.5L74.33 162.5L74.33 137.5Z"
       id="bhB9x4gSh" />
    <path
       d="M74.33 137.5L99.33 137.5L99.33 162.5L74.33 162.5L74.33 137.5Z"
       id="aM3fjrxp" />
    <path
       d="M74.33 137.5L99.33 137.5L99.33 162.5L74.33 162.5L74.33 137.5Z"
       id="b2cqhtGpR" />
    <path
       d="M74.33 137.5L99.33 137.5L99.33 162.5L74.33 162.5L74.33 137.5Z"
       id="hlWsDv4n8" />
    <path
       d="M74.33 59.08L99.33 59.08L99.33 84.08L74.33 84.08L74.33 59.08Z"
       id="b8m6IzT9E" />
    <path
       d="M74.33 97.97L99.33 97.97L99.33 122.97L74.33 122.97L74.33 97.97Z"
       id="bG1QeeGPg" />
    <path
       d="M74.33 176.33L99.33 176.33L99.33 201.33L74.33 201.33L74.33 176.33Z"
       id="bajDqBYd" />
    <path
       d="M205.71 218L230.71 218L230.71 243L205.71 243L205.71 218Z"
       id="l6ftUzVdXU" />
    <path
       d="M205.71 137.5L230.71 137.5L230.71 162.5L205.71 162.5L205.71 137.5Z"
       id="a4RdR6Nwj" />
    <path
       d="M205.71 137.5L230.71 137.5L230.71 162.5L205.71 162.5L205.71 137.5Z"
       id="a2Gq5leisk" />
    <path
       d="M205.71 137.5L230.71 137.5L230.71 162.5L205.71 162.5L205.71 137.5Z"
       id="bZykoaoy" />
    <path
       d="M205.71 137.5L230.71 137.5L230.71 162.5L205.71 162.5L205.71 137.5Z"
       id="c1jh7Dxa6K" />
    <path
       d="M205.71 177.33L230.71 177.33L230.71 202.33L205.71 202.33L205.71 177.33Z"
       id="c3vVxiGhVT" />
    <path
       d="M173.84 59.08L230.71 107.08L173.84 107.08L173.84 59.08Z"
       id="dcAdWGCdh" />
    <path
       d="M118.75 218L143.75 218L143.75 243L118.75 243L118.75 218Z"
       id="aL0AmMTxi" />
    <path
       d="M143.75 59.08L162.98 59.08L162.98 84.08L143.75 84.08L143.75 59.08Z"
       id="d4bYcRDlX" />
    <path
       d="M161.34 218L186.34 218L186.34 243L161.34 243L161.34 218Z"
       id="b1FFMxgh0I" />
  </defs>
  <g
     id="g3025">
    <g
       id="g3023">
      <g
         id="g2917" />
      <g
         id="g2923" />
      <g
         id="g2927" />
      <g
         id="g2933" />
      <g
         id="g2939" />
      <g
         id="g2945" />
      <g
         id="g2951" />
      <g
         id="g2957" />
      <g
         id="g2963" />
      <g
         id="g2969" />
      <g
         id="g2975" />
      <g
         id="g2981" />
      <g
         id="g2987" />
      <g
         id="g2993" />
      <g
         id="g2999" />
      <g
         id="g3005" />
      <g
         id="g3009" />
      <g
         id="g3013" />
      <g
         id="g3017" />
      <g
         id="g3021">
        <path
           id="use3019"
           style="color:#000000;fill:#ffffff;-inkscape-stroke:none"
           d="m 161.34,218 h 25 v 25 h -25 z M 143.75,59.08 h 19.23 v 25 h -19.23 z m -25,158.92 h 25 v 25 h -25 z m 55.09,-158.92 56.87,48 h -56.87 z m 31.87,118.25 h 25 v 25 h -25 z m 0,0 h 25 v 25 h -25 z m 0,-39.83 h 25 v 25 h -25 z m 0,0 h 25 v 25 h -25 z m 0,0 h 25 v 25 h -25 z m 0,0 h 25 v 25 h -25 z m 0,0 h 25 v 25 h -25 z m 0,0 h 25 v 25 h -25 z m 0,0 h 25 v 25 h -25 z m 0,0 h 25 v 25 h -25 z m 0,80.5 h 25 v 25 h -25 z m 0,0 h 25 v 25 h -25 z M 74.33,176.33 h 25 v 25 h -25 z m 0,0 h 25 v 25 h -25 z m 0,-78.36 h 25 v 25 h -25 z m 0,0 h 25 v 25 h -25 z m 0,-38.89 h 25 v 25 h -25 z m 0,0 h 25 v 25 h -25 z m 0,78.42 h 25 v 25 h -25 z m 0,0 h 25 v 25 h -25 z m 0,0 h 25 v 25 h -25 z m 0,0 h 25 v 25 h -25 z m 0,0 h 25 v 25 h -25 z m 0,0 h 25 v 25 h -25 z m 0,0 h 25 v 25 h -25 z m 0,0 h 25 v 25 h -25 z m 39.09,-78.42 h 19.23 v 25 H 113.42 Z M 74.33,218 h 25 v 25 h -25 z m 0,0 h 25 v 25 h -25 z m 112.55,-82.22 c 2.59,0 4.69,2.1 4.69,4.69 0,4.75 0,14.31 0,19.06 0,2.59 -2.1,4.69 -4.69,4.69 -14.34,0 -52.69,0 -67.03,0 -2.59,0 -4.69,-2.1 -4.69,-4.69 0,-4.75 0,-14.31 0,-19.06 0,-2.59 2.1,-4.69 4.69,-4.69 14.34,0 52.69,0 67.03,0 z" />
      </g>
    </g>
  </g>
</svg>
