<?xml version="1.0" encoding="UTF-8" standalone="no"?>
<svg
   version="1.1"
   preserveAspectRatio="xMidYMid meet"
   viewBox="0 0 300 300"
   width="300"
   height="300"
   id="svg567"
   sodipodi:docname="ICON4_5.svg"
   inkscape:version="1.1 (c4e8f9e, 2021-05-24)"
   xmlns:inkscape="http://www.inkscape.org/namespaces/inkscape"
   xmlns:sodipodi="http://sodipodi.sourceforge.net/DTD/sodipodi-0.dtd"
   xmlns="http://www.w3.org/2000/svg"
   xmlns:svg="http://www.w3.org/2000/svg">
  <sodipodi:namedview
     id="namedview569"
     pagecolor="#ffffff"
     bordercolor="#666666"
     borderopacity="1.0"
     inkscape:pageshadow="2"
     inkscape:pageopacity="0.0"
     inkscape:pagecheckerboard="0"
     showgrid="false"
     inkscape:zoom="2.81"
     inkscape:cx="156.9395"
     inkscape:cy="184.51957"
     inkscape:window-width="1399"
     inkscape:window-height="1027"
     inkscape:window-x="0"
     inkscape:window-y="25"
     inkscape:window-maximized="0"
     inkscape:current-layer="svg567" />
  <defs
     id="defs411">
    <path
       d="M243.65 213.45C248.7 213.45 252.79 217.55 252.79 222.6C252.79 224.42 252.79 220.77 252.79 222.6C252.79 227.65 248.7 231.74 243.65 231.74C204.36 231.74 95.64 231.74 56.35 231.74C51.3 231.74 47.21 227.65 47.21 222.6C47.21 220.77 47.21 224.42 47.21 222.6C47.21 217.55 51.3 213.45 56.35 213.45C95.64 213.45 204.36 213.45 243.65 213.45Z"
       id="cXC8V261" />
    <path
       d="M243.65 213.45C248.7 213.45 252.79 217.55 252.79 222.6C252.79 226.88 252.79 230.61 252.79 234.9C252.79 239.95 248.7 244.04 243.65 244.04C204.36 244.04 95.64 244.04 56.35 244.04C51.3 244.04 47.21 239.95 47.21 234.9C47.21 230.61 47.21 226.88 47.21 222.6C47.21 217.55 51.3 213.45 56.35 213.45C95.64 213.45 204.36 213.45 243.65 213.45Z"
       id="b7QabRgP5h" />
    <path
       d="M79.41 213.45C85.8 213.45 90.99 218.64 90.99 225.04C90.99 233.72 90.99 248.19 90.99 256.87C90.99 263.27 85.8 268.45 79.41 268.45C72.69 268.45 64.11 268.45 57.39 268.45C50.99 268.45 45.81 263.27 45.81 256.87C45.81 248.19 45.81 233.72 45.81 225.04C45.81 218.64 50.99 213.45 57.39 213.45C64.11 213.45 72.69 213.45 79.41 213.45Z"
       id="d6iVMQGG5r" />
    <path
       d=""
       id="a2YzykVSXB" />
    <path
       d="M66.43 83.08L66.43 59.08"
       id="c306npy27g" />
    <path
       d="M66.43 123.47L66.43 99.47"
       id="dghC8hBiU" />
    <path
       d="M66.43 192.84L66.43 137.84"
       id="c1CBf4WHbc" />
    <path
       d="M233.28 180.81L60.39 180.81"
       id="eUmLGj4Rz" />
    <path
       d=""
       id="dGJC6y2md" />
    <path
       d="M230.6 192.84L230.6 137.84"
       id="e3rh0slcSo" />
    <path
       d=""
       id="h1QiFsiY48" />
    <path
       d="M245.62 213.45C252.02 213.45 257.2 218.64 257.2 225.04C257.2 233.72 257.2 248.19 257.2 256.87C257.2 263.27 252.02 268.45 245.62 268.45C238.9 268.45 230.33 268.45 223.61 268.45C217.21 268.45 212.02 263.27 212.02 256.87C212.02 248.19 212.02 233.72 212.02 225.04C212.02 218.64 217.21 213.45 223.61 213.45C230.33 213.45 238.9 213.45 245.62 213.45Z"
       id="dFijoe0nC" />
    <path
       d="M161.01 215.24C167.4 215.24 172.59 220.42 172.59 226.82C172.59 235.5 172.59 249.97 172.59 258.65C172.59 265.05 167.4 270.24 161.01 270.24C154.29 270.24 145.71 270.24 138.99 270.24C132.6 270.24 127.41 265.05 127.41 258.65C127.41 249.97 127.41 235.5 127.41 226.82C127.41 220.42 132.6 215.24 138.99 215.24C145.71 215.24 154.29 215.24 161.01 215.24Z"
       id="b1tYRkMY9F" />
    <path
       d=""
       id="agA1069em" />
    <path
       d="M231 83.08L231 59.08"
       id="bL9GA69yL" />
    <path
       d="M231 123.47L231 99.47"
       id="bi4TY2YmS" />
    <path
       d="M160.99 137.66C160.99 145.1 155.28 151.15 148.24 151.15C141.2 151.15 135.49 145.1 135.49 137.66C135.49 130.21 141.2 124.16 148.24 124.16C155.28 124.16 160.99 130.21 160.99 137.66Z"
       id="b3RTGvDVC7" />
    <path
       d="M144.2 59.08L155.8 59.08L155.8 91.74L144.2 91.74L144.2 59.08Z"
       id="b1Zqzvclii" />
    <path
       d="M158.87 100.35L171.36 57.45L158.87 57.45L158.87 100.35Z"
       id="c1N1nvzvQD" />
    <path
       d="M141.73 100.35L129.24 57.45L141.73 57.45L141.73 100.35Z"
       id="b1roIR9JdW" />
  </defs>
  <g
     id="g565">
    <g
       id="g563">
      <g
         id="g419">
        <g
           id="g417">
          <g
             id="use415" />
        </g>
      </g>
      <g
         id="g429">
        <g
           id="g427">
          <g
             id="use425" />
        </g>
      </g>
      <g
         id="g437">
        <g
           id="g435">
          <g
             id="use433" />
        </g>
      </g>
      <g
         id="g443">
        <g
           id="g441" />
      </g>
      <g
         id="g449">
        <g
           id="g447">
          <g
             id="use445" />
        </g>
      </g>
      <g
         id="g455">
        <g
           id="g453">
          <g
             id="use451" />
        </g>
      </g>
      <g
         id="g461">
        <g
           id="g459">
          <g
             id="use457" />
        </g>
      </g>
      <g
         id="g469">
        <g
           id="g467">
          <g
             id="use465" />
        </g>
      </g>
      <g
         id="g477">
        <g
           id="g475" />
      </g>
      <g
         id="g483">
        <g
           id="g481">
          <g
             id="use479" />
        </g>
      </g>
      <g
         id="g489">
        <g
           id="g487" />
      </g>
      <g
         id="g497">
        <g
           id="g495">
          <g
             id="use493" />
        </g>
      </g>
      <g
         id="g505">
        <g
           id="g503">
          <g
             id="use501" />
        </g>
      </g>
      <g
         id="g513">
        <g
           id="g511" />
      </g>
      <g
         id="g521">
        <g
           id="g519">
          <g
             id="use517" />
        </g>
      </g>
      <g
         id="g529">
        <g
           id="g527">
          <g
             id="use525" />
        </g>
      </g>
      <g
         id="g537">
        <g
           id="g535">
          <g
             id="use533" />
        </g>
      </g>
      <g
         id="g545">
        <g
           id="g543">
          <g
             id="use541" />
        </g>
      </g>
      <g
         id="g553">
        <g
           id="g551">
          <g
             id="use549" />
        </g>
      </g>
      <g
         id="g561">
        <g
           id="g559">
          <g
             id="use557">
            <path
               id="path915"
               style="color:#000000;fill:#ffffff;-inkscape-stroke:none"
               d="m 115.91406,47.449219 16.21485,55.695311 19.60156,-2.79492 V 47.449219 Z M 141.73,100.35 129.24,57.45 h 12.49 z m 0,0 -12.49,-42.9 h 12.49 z m 7.13914,-52.900781 v 52.900391 l 19.60156,2.79492 16.2168,-55.695311 z M 158.87,100.35 171.36,57.45 h -12.49 z m 0,0 12.49,-42.9 H 158.87 Z M 132.19922,47.080078 v 12 44.660152 h 35.60156 V 47.080078 Z M 144.2,59.08 h 11.6 v 32.66 h -11.6 z m 0,0 h 11.6 v 32.66 h -11.6 z m 4.04023,53.08016 c -13.91498,0 -24.75,11.91847 -24.75,25.5 0,13.57977 10.83502,25.49023 24.75,25.49023 13.91499,0 24.75,-11.91046 24.75,-25.49023 0,-13.58153 -10.83501,-25.5 -24.75,-25.5 z m 0,24 c 0.165,0 0.75,0.18154 0.75,1.5 0,1.30021 -0.585,1.49023 -0.75,1.49023 -0.165,0 -0.75,-0.19002 -0.75,-1.49023 0,-1.31846 0.585,-1.5 0.75,-1.5 z M 160.99,137.66 c 0,7.44 -5.71,13.49 -12.75,13.49 -7.04,0 -12.75,-6.05 -12.75,-13.49 0,-7.45 5.71,-13.5 12.75,-13.5 7.04,0 12.75,6.05 12.75,13.5 z m 0,0 c 0,7.44 -5.71,13.49 -12.75,13.49 -7.04,0 -12.75,-6.05 -12.75,-13.49 0,-7.45 5.71,-13.5 12.75,-13.5 7.04,0 12.75,6.05 12.75,13.5 z M 219,99.470703 V 123.4707 h 24 V 99.470703 Z M 231,123.47 v -24 m 0,24 v -24 M 219,59.080078 v 24 h 24 v -24 z M 231,83.08 v -24 m 0,24 v -24 m -69.99,156.16 c 6.38999,0 11.58,5.18001 11.58,11.58 v 31.83 c 0,6.39999 -5.19001,11.59 -11.58,11.59 h -22.02 c -6.38999,0 -11.58,-5.19001 -11.58,-11.59 v -31.83 c 0,-6.39999 5.19001,-11.58 11.58,-11.58 z m 0,0 c 6.39,0 11.58,5.18 11.58,11.58 0,8.68 0,23.15 0,31.83 0,6.4 -5.19,11.59 -11.58,11.59 -6.72,0 -15.3,0 -22.02,0 -6.39,0 -11.58,-5.19 -11.58,-11.59 0,-8.68 0,-23.15 0,-31.83 0,-6.4 5.19,-11.58 11.58,-11.58 6.72,0 15.3,0 22.02,0 z m 0,0 c 6.39,0 11.58,5.18 11.58,11.58 0,8.68 0,23.15 0,31.83 0,6.4 -5.19,11.59 -11.58,11.59 -6.72,0 -15.3,0 -22.02,0 -6.39,0 -11.58,-5.19 -11.58,-11.59 0,-8.68 0,-23.15 0,-31.83 0,-6.4 5.19,-11.58 11.58,-11.58 6.72,0 15.3,0 22.02,0 z m 84.61,-1.79 c 6.39999,0 11.58,5.19001 11.58,11.59 v 31.83 c 0,6.39999 -5.18001,11.58 -11.58,11.58 h -22.01 c -6.39999,0 -11.59,-5.18001 -11.59,-11.58 v -31.83 c 0,-6.39999 5.19001,-11.59 11.59,-11.59 z m 0,0 c 6.4,0 11.58,5.19 11.58,11.59 0,8.68 0,23.15 0,31.83 0,6.4 -5.18,11.58 -11.58,11.58 -6.72,0 -15.29,0 -22.01,0 -6.4,0 -11.59,-5.18 -11.59,-11.58 0,-8.68 0,-23.15 0,-31.83 0,-6.4 5.19,-11.59 11.59,-11.59 6.72,0 15.29,0 22.01,0 z m 0,0 c 6.4,0 11.58,5.19 11.58,11.59 0,8.68 0,23.15 0,31.83 0,6.4 -5.18,11.58 -11.58,11.58 -6.72,0 -15.29,0 -22.01,0 -6.4,0 -11.59,-5.18 -11.59,-11.58 0,-8.68 0,-23.15 0,-31.83 0,-6.4 5.19,-11.59 11.59,-11.59 6.72,0 15.29,0 22.01,0 z m -27.02039,-75.61016 v 55 h 24 v -55 z M 230.6,192.84 v -55 M 60.390625,168.81055 v 24 H 233.2793 v -24 z M 233.28,180.81 H 60.39 m 172.89,0 H 60.39 m -5.960313,-42.97016 v 55 h 24 v -55 z M 66.43,192.84 v -55 M 54.429687,99.470703 V 123.4707 h 24 V 99.470703 Z M 66.43,123.47 v -24 M 54.429687,59.080078 v 24 h 24 v -24 z M 66.43,83.08 v -24 m 12.98,154.37 c 6.389994,0 11.58,5.19001 11.58,11.59 v 31.83 c 0,6.39999 -5.190006,11.58 -11.58,11.58 H 57.39 c -6.399994,0 -11.58,-5.18001 -11.58,-11.58 v -31.83 c 0,-6.39999 5.180006,-11.59 11.58,-11.59 z m 0,0 c 6.39,0 11.58,5.19 11.58,11.59 0,8.68 0,23.15 0,31.83 0,6.4 -5.19,11.58 -11.58,11.58 -6.72,0 -15.3,0 -22.02,0 -6.4,0 -11.58,-5.18 -11.58,-11.58 0,-8.68 0,-23.15 0,-31.83 0,-6.4 5.18,-11.59 11.58,-11.59 6.72,0 15.3,0 22.02,0 z m 0,0 c 6.39,0 11.58,5.19 11.58,11.59 0,8.68 0,23.15 0,31.83 0,6.4 -5.19,11.58 -11.58,11.58 -6.72,0 -15.3,0 -22.02,0 -6.4,0 -11.58,-5.18 -11.58,-11.58 0,-8.68 0,-23.15 0,-31.83 0,-6.4 5.18,-11.59 11.58,-11.59 6.72,0 15.3,0 22.02,0 z m 164.24,0 c 5.04999,0 9.14,4.10001 9.14,9.15 v 12.3 c 0,5.04999 -4.09001,9.14 -9.14,9.14 H 56.35 c -5.049995,0 -9.14,-4.09001 -9.14,-9.14 v -12.3 c 0,-5.04999 4.090005,-9.15 9.14,-9.15 z m 0,0 c 5.05,0 9.14,4.1 9.14,9.15 0,4.28 0,8.01 0,12.3 0,5.05 -4.09,9.14 -9.14,9.14 -39.29,0 -148.01,0 -187.3,0 -5.05,0 -9.14,-4.09 -9.14,-9.14 0,-4.29 0,-8.02 0,-12.3 0,-5.05 4.09,-9.15 9.14,-9.15 39.29,0 148.01,0 187.3,0 z m 0,0 c 5.05,0 9.14,4.1 9.14,9.15 0,4.28 0,8.01 0,12.3 0,5.05 -4.09,9.14 -9.14,9.14 -39.29,0 -148.01,0 -187.3,0 -5.05,0 -9.14,-4.09 -9.14,-9.14 0,-4.29 0,-8.02 0,-12.3 0,-5.05 4.09,-9.15 9.14,-9.15 39.29,0 148.01,0 187.3,0 z m 0,0 c 5.04999,0 9.14,4.10001 9.14,9.15 0,1.82 0,-1.83 0,0 0,5.04999 -4.09001,9.14 -9.14,9.14 H 56.35 c -5.049995,0 -9.14,-4.09001 -9.14,-9.14 0,-1.83 0,1.82 0,0 0,-5.04999 4.090005,-9.15 9.14,-9.15 z m 0,0 c 5.05,0 9.14,4.1 9.14,9.15 0,1.82 0,-1.83 0,0 0,5.05 -4.09,9.14 -9.14,9.14 -39.29,0 -148.01,0 -187.3,0 -5.05,0 -9.14,-4.09 -9.14,-9.14 0,-1.83 0,1.82 0,0 0,-5.05 4.09,-9.15 9.14,-9.15 39.29,0 148.01,0 187.3,0 z m 0,0 c 5.05,0 9.14,4.1 9.14,9.15 0,1.82 0,-1.83 0,0 0,5.05 -4.09,9.14 -9.14,9.14 -39.29,0 -148.01,0 -187.3,0 -5.05,0 -9.14,-4.09 -9.14,-9.14 0,-1.83 0,1.82 0,0 0,-5.05 4.09,-9.15 9.14,-9.15 39.29,0 148.01,0 187.3,0 z" />
          </g>
        </g>
      </g>
    </g>
  </g>
</svg>
