<?xml version="1.0" encoding="UTF-8" standalone="no"?>
<svg
   version="1.1"
   preserveAspectRatio="xMidYMid meet"
   viewBox="0 0 300 300"
   width="300"
   height="300"
   id="svg3914"
   sodipodi:docname="ICON4_2.svg"
   inkscape:version="1.1 (c4e8f9e, 2021-05-24)"
   xmlns:inkscape="http://www.inkscape.org/namespaces/inkscape"
   xmlns:sodipodi="http://sodipodi.sourceforge.net/DTD/sodipodi-0.dtd"
   xmlns="http://www.w3.org/2000/svg"
   xmlns:svg="http://www.w3.org/2000/svg">
  <sodipodi:namedview
     id="namedview3916"
     pagecolor="#ffffff"
     bordercolor="#666666"
     borderopacity="1.0"
     inkscape:pageshadow="2"
     inkscape:pageopacity="0.0"
     inkscape:pagecheckerboard="0"
     showgrid="false"
     inkscape:zoom="2.8233333"
     inkscape:cx="150"
     inkscape:cy="162.0425"
     inkscape:window-width="1384"
     inkscape:window-height="1027"
     inkscape:window-x="0"
     inkscape:window-y="25"
     inkscape:window-maximized="0"
     inkscape:current-layer="svg3914" />
  <defs
     id="defs3810">
    <path
       d="M243.65 213.45C248.7 213.45 252.79 217.55 252.79 222.6C252.79 224.42 252.79 220.77 252.79 222.6C252.79 227.65 248.7 231.74 243.65 231.74C204.36 231.74 95.64 231.74 56.35 231.74C51.3 231.74 47.21 227.65 47.21 222.6C47.21 220.77 47.21 224.42 47.21 222.6C47.21 217.55 51.3 213.45 56.35 213.45C95.64 213.45 204.36 213.45 243.65 213.45Z"
       id="f5PoQTN3o" />
    <path
       d="M243.65 213.45C248.7 213.45 252.79 217.55 252.79 222.6C252.79 226.88 252.79 230.61 252.79 234.9C252.79 239.95 248.7 244.04 243.65 244.04C204.36 244.04 95.64 244.04 56.35 244.04C51.3 244.04 47.21 239.95 47.21 234.9C47.21 230.61 47.21 226.88 47.21 222.6C47.21 217.55 51.3 213.45 56.35 213.45C95.64 213.45 204.36 213.45 243.65 213.45Z"
       id="e2Uizxlg78" />
    <path
       d="M79.41 213.45C85.8 213.45 90.99 218.64 90.99 225.04C90.99 233.72 90.99 248.19 90.99 256.87C90.99 263.27 85.8 268.45 79.41 268.45C72.69 268.45 64.11 268.45 57.39 268.45C50.99 268.45 45.81 263.27 45.81 256.87C45.81 248.19 45.81 233.72 45.81 225.04C45.81 218.64 50.99 213.45 57.39 213.45C64.11 213.45 72.69 213.45 79.41 213.45Z"
       id="f27q1Z9eih" />
    <path
       d=""
       id="f5HQhMwzx3" />
    <path
       d="M66.43 83.08L66.43 59.08"
       id="c3nBb6ew26" />
    <path
       d="M66.43 123.47L66.43 99.47"
       id="c2IAItJJh" />
    <path
       d="M66.43 193.12L66.43 138.12"
       id="bc0XpNz42" />
    <path
       d="M234.61 180.81L61.72 180.81"
       id="b3cpA8fZDO" />
    <path
       d=""
       id="bLUGgekrc" />
    <path
       d="M230.6 192.84L230.6 137.84"
       id="d2LtyGAabv" />
    <path
       d="M245.62 213.45C252.02 213.45 257.2 218.64 257.2 225.04C257.2 233.72 257.2 248.19 257.2 256.87C257.2 263.27 252.02 268.45 245.62 268.45C238.9 268.45 230.33 268.45 223.61 268.45C217.21 268.45 212.02 263.27 212.02 256.87C212.02 248.19 212.02 233.72 212.02 225.04C212.02 218.64 217.21 213.45 223.61 213.45C230.33 213.45 238.9 213.45 245.62 213.45Z"
       id="c1qjpcKIU2" />
    <path
       d="M161.01 215.68C167.4 215.68 172.59 220.87 172.59 227.26C172.59 235.95 172.59 250.42 172.59 259.1C172.59 265.5 167.4 270.68 161.01 270.68C154.29 270.68 145.71 270.68 138.99 270.68C132.6 270.68 127.41 265.5 127.41 259.1C127.41 250.42 127.41 235.95 127.41 227.26C127.41 220.87 132.6 215.68 138.99 215.68C145.71 215.68 154.29 215.68 161.01 215.68Z"
       id="b1SRpyZ7q" />
    <path
       d=""
       id="h1WT5vXbh4" />
    <path
       d="M231 83.08L231 59.08"
       id="a2Nb1u2t3H" />
    <path
       d="M231 123.47L231 99.47"
       id="bwxJW7on2" />
  </defs>
  <g
     id="g3912">
    <g
       id="g3910">
      <g
         id="g3814" />
      <g
         id="g3824">
        <g
           id="g3822">
          <g
             id="use3820" />
        </g>
      </g>
      <g
         id="g3832">
        <g
           id="g3830">
          <g
             id="use3828" />
        </g>
      </g>
      <g
         id="g3838">
        <g
           id="g3836" />
      </g>
      <g
         id="g3846">
        <g
           id="g3844">
          <g
             id="use3842" />
        </g>
      </g>
      <g
         id="g3852">
        <g
           id="g3850">
          <g
             id="use3848" />
        </g>
      </g>
      <g
         id="g3860">
        <g
           id="g3858">
          <g
             id="use3856" />
        </g>
      </g>
      <g
         id="g3866">
        <g
           id="g3864">
          <g
             id="use3862" />
        </g>
      </g>
      <g
         id="g3872">
        <g
           id="g3870" />
      </g>
      <g
         id="g3878">
        <g
           id="g3876">
          <g
             id="use3874" />
        </g>
      </g>
      <g
         id="g3886">
        <g
           id="g3884">
          <g
             id="use3882" />
        </g>
      </g>
      <g
         id="g3890" />
      <g
         id="g3896">
        <g
           id="g3894" />
      </g>
      <g
         id="g3902">
        <g
           id="g3900">
          <g
             id="use3898" />
        </g>
      </g>
      <g
         id="g3908">
        <g
           id="g3906">
          <g
             id="use3904">
            <path
               id="path4076"
               style="color:#000000;fill:#ffffff;-inkscape-stroke:none"
               d="M 219,99.470703 V 123.4707 h 24 V 99.470703 Z M 231,123.47 v -24 M 219,59.080078 v 24 h 24 v -24 z M 231,83.08 v -24 m -69.99,156.6 c 6.39,0 11.58,5.19 11.58,11.58 0,8.69 0,23.16 0,31.84 0,6.4 -5.19,11.58 -11.58,11.58 -6.72,0 -15.3,0 -22.02,0 -6.39,0 -11.58,-5.18 -11.58,-11.58 0,-8.68 0,-23.15 0,-31.84 0,-6.39 5.19,-11.58 11.58,-11.58 6.72,0 15.3,0 22.02,0 z m 84.61,-2.23 c 6.39999,0 11.58,5.19001 11.58,11.59 v 31.83 c 0,6.39999 -5.18001,11.58 -11.58,11.58 h -22.01 c -6.39999,0 -11.59,-5.18001 -11.59,-11.58 v -31.83 c 0,-6.39999 5.19001,-11.59 11.59,-11.59 z m 0,0 c 6.4,0 11.58,5.19 11.58,11.59 0,8.68 0,23.15 0,31.83 0,6.4 -5.18,11.58 -11.58,11.58 -6.72,0 -15.29,0 -22.01,0 -6.4,0 -11.59,-5.18 -11.59,-11.58 0,-8.68 0,-23.15 0,-31.83 0,-6.4 5.19,-11.59 11.59,-11.59 6.72,0 15.29,0 22.01,0 z m 0,0 c 6.4,0 11.58,5.19 11.58,11.59 0,8.68 0,23.15 0,31.83 0,6.4 -5.18,11.58 -11.58,11.58 -6.72,0 -15.29,0 -22.01,0 -6.4,0 -11.59,-5.18 -11.59,-11.58 0,-8.68 0,-23.15 0,-31.83 0,-6.4 5.19,-11.59 11.59,-11.59 6.72,0 15.29,0 22.01,0 z m -27.02039,-75.61016 v 55 h 24 v -55 z M 230.6,192.84 v -55 M 61.720703,168.81055 v 24 H 234.60937 v -24 z M 234.61,180.81 H 61.72 m -7.290313,-42.69086 v 55 h 24 v -55 z M 66.43,193.12 v -55 m 0,55 v -55 M 54.429687,99.470703 V 123.4707 h 24 V 99.470703 Z M 66.43,123.47 v -24 M 54.429687,59.080078 v 24 h 24 v -24 z M 66.43,83.08 v -24 m 0,24 v -24 m 12.98,154.37 c 6.389994,0 11.58,5.19001 11.58,11.59 v 31.83 c 0,6.39999 -5.190006,11.58 -11.58,11.58 H 57.39 c -6.399994,0 -11.58,-5.18001 -11.58,-11.58 v -31.83 c 0,-6.39999 5.180006,-11.59 11.58,-11.59 z m 0,0 c 6.39,0 11.58,5.19 11.58,11.59 0,8.68 0,23.15 0,31.83 0,6.4 -5.19,11.58 -11.58,11.58 -6.72,0 -15.3,0 -22.02,0 -6.4,0 -11.58,-5.18 -11.58,-11.58 0,-8.68 0,-23.15 0,-31.83 0,-6.4 5.18,-11.59 11.58,-11.59 6.72,0 15.3,0 22.02,0 z m 0,0 c 6.39,0 11.58,5.19 11.58,11.59 0,8.68 0,23.15 0,31.83 0,6.4 -5.19,11.58 -11.58,11.58 -6.72,0 -15.3,0 -22.02,0 -6.4,0 -11.58,-5.18 -11.58,-11.58 0,-8.68 0,-23.15 0,-31.83 0,-6.4 5.18,-11.59 11.58,-11.59 6.72,0 15.3,0 22.02,0 z m 164.24,0 c 5.04999,0 9.14,4.10001 9.14,9.15 v 12.3 c 0,5.04999 -4.09001,9.14 -9.14,9.14 H 56.35 c -5.049995,0 -9.14,-4.09001 -9.14,-9.14 v -12.3 c 0,-5.04999 4.090005,-9.15 9.14,-9.15 z m 0,0 c 5.05,0 9.14,4.1 9.14,9.15 0,4.28 0,8.01 0,12.3 0,5.05 -4.09,9.14 -9.14,9.14 -39.29,0 -148.01,0 -187.3,0 -5.05,0 -9.14,-4.09 -9.14,-9.14 0,-4.29 0,-8.02 0,-12.3 0,-5.05 4.09,-9.15 9.14,-9.15 39.29,0 148.01,0 187.3,0 z m 0,0 c 5.05,0 9.14,4.1 9.14,9.15 0,4.28 0,8.01 0,12.3 0,5.05 -4.09,9.14 -9.14,9.14 -39.29,0 -148.01,0 -187.3,0 -5.05,0 -9.14,-4.09 -9.14,-9.14 0,-4.29 0,-8.02 0,-12.3 0,-5.05 4.09,-9.15 9.14,-9.15 39.29,0 148.01,0 187.3,0 z m 0,0 c 5.05,0 9.14,4.1 9.14,9.15 0,1.82 0,-1.83 0,0 0,5.05 -4.09,9.14 -9.14,9.14 -39.29,0 -148.01,0 -187.3,0 -5.05,0 -9.14,-4.09 -9.14,-9.14 0,-1.83 0,1.82 0,0 0,-5.05 4.09,-9.15 9.14,-9.15 39.29,0 148.01,0 187.3,0 z" />
          </g>
        </g>
      </g>
    </g>
  </g>
</svg>
