<?xml version="1.0" encoding="UTF-8" standalone="no"?>
<svg
   version="1.1"
   preserveAspectRatio="xMidYMid meet"
   viewBox="0 0 300 300"
   width="300"
   height="300"
   id="svg4436"
   sodipodi:docname="ICON4_6.svg"
   inkscape:version="1.1 (c4e8f9e, 2021-05-24)"
   xmlns:inkscape="http://www.inkscape.org/namespaces/inkscape"
   xmlns:sodipodi="http://sodipodi.sourceforge.net/DTD/sodipodi-0.dtd"
   xmlns="http://www.w3.org/2000/svg"
   xmlns:svg="http://www.w3.org/2000/svg">
  <sodipodi:namedview
     id="namedview4438"
     pagecolor="#ffffff"
     bordercolor="#666666"
     borderopacity="1.0"
     inkscape:pageshadow="2"
     inkscape:pageopacity="0.0"
     inkscape:pagecheckerboard="0"
     showgrid="false"
     inkscape:zoom="2.8233333"
     inkscape:cx="150"
     inkscape:cy="-38.075561"
     inkscape:window-width="1384"
     inkscape:window-height="1027"
     inkscape:window-x="0"
     inkscape:window-y="25"
     inkscape:window-maximized="0"
     inkscape:current-layer="svg4436" />
  <defs
     id="defs4368">
    <path
       d="M243.65 213.45C248.7 213.45 252.79 217.55 252.79 222.6C252.79 224.42 252.79 220.77 252.79 222.6C252.79 227.65 248.7 231.74 243.65 231.74C204.36 231.74 95.64 231.74 56.35 231.74C51.3 231.74 47.21 227.65 47.21 222.6C47.21 220.77 47.21 224.42 47.21 222.6C47.21 217.55 51.3 213.45 56.35 213.45C95.64 213.45 204.36 213.45 243.65 213.45Z"
       id="c1Dlk2dwl" />
    <path
       d="M243.65 213.45C248.7 213.45 252.79 217.55 252.79 222.6C252.79 226.88 252.79 230.61 252.79 234.9C252.79 239.95 248.7 244.04 243.65 244.04C204.36 244.04 95.64 244.04 56.35 244.04C51.3 244.04 47.21 239.95 47.21 234.9C47.21 230.61 47.21 226.88 47.21 222.6C47.21 217.55 51.3 213.45 56.35 213.45C95.64 213.45 204.36 213.45 243.65 213.45Z"
       id="d1lQztYdc" />
    <path
       d="M79.41 213.45C85.8 213.45 90.99 218.64 90.99 225.04C90.99 233.72 90.99 248.19 90.99 256.87C90.99 263.27 85.8 268.45 79.41 268.45C72.69 268.45 64.11 268.45 57.39 268.45C50.99 268.45 45.81 263.27 45.81 256.87C45.81 248.19 45.81 233.72 45.81 225.04C45.81 218.64 50.99 213.45 57.39 213.45C64.11 213.45 72.69 213.45 79.41 213.45Z"
       id="b3kvGtCeig" />
    <path
       d=""
       id="f7lobGEnq" />
    <path
       d=""
       id="arGi9FMK5" />
    <path
       d=""
       id="g5FqA0kHN5" />
    <path
       d="M245.62 213.45C252.02 213.45 257.2 218.64 257.2 225.04C257.2 233.72 257.2 248.19 257.2 256.87C257.2 263.27 252.02 268.45 245.62 268.45C238.9 268.45 230.33 268.45 223.61 268.45C217.21 268.45 212.02 263.27 212.02 256.87C212.02 248.19 212.02 233.72 212.02 225.04C212.02 218.64 217.21 213.45 223.61 213.45C230.33 213.45 238.9 213.45 245.62 213.45Z"
       id="c3LDJOo4Ha" />
    <path
       d="M161.01 215.24C167.4 215.24 172.59 220.42 172.59 226.82C172.59 235.5 172.59 249.97 172.59 258.65C172.59 265.05 167.4 270.24 161.01 270.24C154.29 270.24 145.71 270.24 138.99 270.24C132.6 270.24 127.41 265.05 127.41 258.65C127.41 249.97 127.41 235.5 127.41 226.82C127.41 220.42 132.6 215.24 138.99 215.24C145.71 215.24 154.29 215.24 161.01 215.24Z"
       id="a1LzaQxkFP" />
    <path
       d=""
       id="e1NchnU4L1" />
    <path
       d="M166.45 178.43C166.45 188 158.26 195.76 148.17 195.76C138.08 195.76 129.89 188 129.89 178.43C129.89 168.87 138.08 161.1 148.17 161.1C158.26 161.1 166.45 168.87 166.45 178.43Z"
       id="b2Au1uEfzu" />
    <path
       d="M161.6 153.23L174.09 87.04L161.6 87.04L161.6 153.23Z"
       id="a1oyBe1Iiw" />
    <path
       d="M138.4 87.04L161.6 87.04L161.6 153.23L138.4 153.23L138.4 87.04Z"
       id="c3D7Hr8KLD" />
    <path
       d="M138.4 153.23L125.91 87.04L138.4 87.04L138.4 153.23Z"
       id="a2LCyuCTbw" />
  </defs>
  <g
     id="g4434">
    <g
       id="g4432">
      <g
         id="g4372" />
      <g
         id="g4378" />
      <g
         id="g4382" />
      <g
         id="g4388">
        <g
           id="g4386" />
      </g>
      <g
         id="g4394">
        <g
           id="g4392" />
      </g>
      <g
         id="g4400">
        <g
           id="g4398" />
      </g>
      <g
         id="g4404" />
      <g
         id="g4408" />
      <g
         id="g4414">
        <g
           id="g4412" />
      </g>
      <g
         id="g4418" />
      <g
         id="g4422" />
      <g
         id="g4426" />
      <g
         id="g4430">
        <path
           id="use4428"
           style="color:#000000;fill:#ffffff;-inkscape-stroke:none"
           d="M 138.4,153.23 125.91,87.04 h 12.49 z m 0,-66.19 h 23.2 v 66.19 h -23.2 z m 23.2,66.19 12.49,-66.19 H 161.6 Z m 4.85,25.2 c 0,9.57 -8.19,17.33 -18.28,17.33 -10.09,0 -18.28,-7.76 -18.28,-17.33 0,-9.56 8.19,-17.33 18.28,-17.33 10.09,0 18.28,7.77 18.28,17.33 z m -5.44,36.81 c 6.39,0 11.58,5.18 11.58,11.58 0,8.68 0,23.15 0,31.83 0,6.4 -5.19,11.59 -11.58,11.59 -6.72,0 -15.3,0 -22.02,0 -6.39,0 -11.58,-5.19 -11.58,-11.59 0,-8.68 0,-23.15 0,-31.83 0,-6.4 5.19,-11.58 11.58,-11.58 6.72,0 15.3,0 22.02,0 z m 84.61,-1.79 c 6.4,0 11.58,5.19 11.58,11.59 0,8.68 0,23.15 0,31.83 0,6.4 -5.18,11.58 -11.58,11.58 -6.72,0 -15.29,0 -22.01,0 -6.4,0 -11.59,-5.18 -11.59,-11.58 0,-8.68 0,-23.15 0,-31.83 0,-6.4 5.19,-11.59 11.59,-11.59 6.72,0 15.29,0 22.01,0 z m -166.21,0 c 6.39,0 11.58,5.19 11.58,11.59 0,8.68 0,23.15 0,31.83 0,6.4 -5.19,11.58 -11.58,11.58 -6.72,0 -15.3,0 -22.02,0 -6.4,0 -11.58,-5.18 -11.58,-11.58 0,-8.68 0,-23.15 0,-31.83 0,-6.4 5.18,-11.59 11.58,-11.59 6.72,0 15.3,0 22.02,0 z m 164.24,0 c 5.05,0 9.14,4.1 9.14,9.15 0,4.28 0,8.01 0,12.3 0,5.05 -4.09,9.14 -9.14,9.14 -39.29,0 -148.01,0 -187.3,0 -5.05,0 -9.14,-4.09 -9.14,-9.14 0,-4.29 0,-8.02 0,-12.3 0,-5.05 4.09,-9.15 9.14,-9.15 39.29,0 148.01,0 187.3,0 z m 0,0 c 5.05,0 9.14,4.1 9.14,9.15 0,1.82 0,-1.83 0,0 0,5.05 -4.09,9.14 -9.14,9.14 -39.29,0 -148.01,0 -187.3,0 -5.05,0 -9.14,-4.09 -9.14,-9.14 0,-1.83 0,1.82 0,0 0,-5.05 4.09,-9.15 9.14,-9.15 39.29,0 148.01,0 187.3,0 z" />
      </g>
    </g>
  </g>
</svg>
