<?xml version="1.0" encoding="UTF-8" standalone="no"?>
<svg
   version="1.1"
   preserveAspectRatio="xMidYMid meet"
   viewBox="0 0 300 300"
   width="300"
   height="300"
   id="svg2612"
   sodipodi:docname="ICON5_1.svg"
   inkscape:version="1.1 (c4e8f9e, 2021-05-24)"
   xmlns:inkscape="http://www.inkscape.org/namespaces/inkscape"
   xmlns:sodipodi="http://sodipodi.sourceforge.net/DTD/sodipodi-0.dtd"
   xmlns="http://www.w3.org/2000/svg"
   xmlns:svg="http://www.w3.org/2000/svg">
  <sodipodi:namedview
     id="namedview2614"
     pagecolor="#ffffff"
     bordercolor="#666666"
     borderopacity="1.0"
     inkscape:pageshadow="2"
     inkscape:pageopacity="0.0"
     inkscape:pagecheckerboard="0"
     showgrid="false"
     inkscape:zoom="2.8233333"
     inkscape:cx="150"
     inkscape:cy="150"
     inkscape:window-width="1384"
     inkscape:window-height="1027"
     inkscape:window-x="0"
     inkscape:window-y="25"
     inkscape:window-maximized="0"
     inkscape:current-layer="svg2612" />
  <defs
     id="defs2594">
    <path
       d="M161.54 75.28L92.37 75.28L92.37 224.72L212.66 224.72L212.66 115.52L230.71 115.52L230.71 241.96L74.33 241.96L74.33 58.04L161.54 58.04L161.54 75.28ZM173.57 105.52L173.57 58.04L230.71 105.52L173.57 105.52Z"
       id="i1FtlemHBy" />
    <path
       d="M188.7 121.57C191.29 121.57 193.39 123.67 193.39 126.26C193.39 131 193.39 140.56 193.39 145.31C193.39 147.9 191.29 150 188.7 150C174.36 150 136.01 150 121.66 150C119.08 150 116.98 147.9 116.98 145.31C116.98 140.56 116.98 131 116.98 126.26C116.98 123.67 119.08 121.57 121.66 121.57C136.01 121.57 174.36 121.57 188.7 121.57Z"
       id="a7QCYOumQ1" />
    <path
       d="M188.43 172.9C191.02 172.9 193.11 175 193.11 177.59C193.11 182.34 193.11 191.9 193.11 196.65C193.11 199.24 191.02 201.33 188.43 201.33C174.08 201.33 135.74 201.33 121.39 201.33C118.8 201.33 116.7 199.24 116.7 196.65C116.7 191.9 116.7 182.34 116.7 177.59C116.7 175 118.8 172.9 121.39 172.9C135.74 172.9 174.08 172.9 188.43 172.9Z"
       id="c1pSppSHFI" />
  </defs>
  <g
     id="g2610">
    <g
       id="g2608">
      <g
         id="g2598" />
      <g
         id="g2602" />
      <g
         id="g2606">
        <path
           id="use2604"
           style="color:#000000;fill:#ffffff;-inkscape-stroke:none"
           d="m 188.43,172.9 c 2.59,0 4.68,2.1 4.68,4.69 0,4.75 0,14.31 0,19.06 0,2.59 -2.09,4.68 -4.68,4.68 -14.35,0 -52.69,0 -67.04,0 -2.59,0 -4.69,-2.09 -4.69,-4.68 0,-4.75 0,-14.31 0,-19.06 0,-2.59 2.1,-4.69 4.69,-4.69 14.35,0 52.69,0 67.04,0 z m 0.27,-51.33 c 2.59,0 4.69,2.1 4.69,4.69 0,4.74 0,14.3 0,19.05 0,2.59 -2.1,4.69 -4.69,4.69 -14.34,0 -52.69,0 -67.04,0 -2.58,0 -4.68,-2.1 -4.68,-4.69 0,-4.75 0,-14.31 0,-19.05 0,-2.59 2.1,-4.69 4.68,-4.69 14.35,0 52.7,0 67.04,0 z M 161.54,75.28 H 92.37 v 149.44 h 120.29 v -109.2 h 18.05 V 241.96 H 74.33 V 58.04 h 87.21 z m 12.03,30.24 V 58.04 l 57.14,47.48 z" />
      </g>
    </g>
  </g>
</svg>
